<svg width="180" height="180" viewBox="0 0 180 180" fill="none" xmlns="http://www.w3.org/2000/svg">
<g clip-path="url(#clip0_2602_67)">
<path fill-rule="evenodd" clip-rule="evenodd" d="M180 67.05V48.4609L90 0L0 48.4609V67.05L90 18.5891L180 67.05ZM32.7273 81.8182V163.636H147.273V81.8182H163.636V180H16.3636V81.8182H32.7273Z" fill="#3EA34B"/>
<path d="M86.5909 79.7732H69.5454L93.409 32.0459V59.3186H110.455L86.5909 107.046V79.7732Z" fill="#F5CA0F"/>
<path d="M117.819 126.818H114.546C113.642 126.818 112.909 127.551 112.909 128.454V141.545C112.909 142.449 113.642 143.182 114.546 143.182H117.819C118.722 143.182 119.455 142.449 119.455 141.545V128.454C119.455 127.551 118.722 126.818 117.819 126.818Z" fill="#F5CA0F"/>
<path d="M70.3645 126.818H80.1827V143.182H70.3645V126.818ZM81.819 126.818H91.6372V143.182H81.819V126.818ZM93.2736 126.818H103.092V143.182H93.2736V126.818Z" fill="#F5CA0F"/>
<path fill-rule="evenodd" clip-rule="evenodd" d="M103.09 117H70.3626C67.7587 117 65.2614 118.035 63.4201 119.876C61.5788 121.717 60.5444 124.214 60.5444 126.818V143.182C60.5444 145.786 61.5788 148.283 63.4201 150.125C65.2614 151.966 67.7587 153 70.3626 153H103.09C105.694 153 108.191 151.966 110.032 150.125C111.874 148.283 112.908 145.786 112.908 143.182V126.818C112.908 124.214 111.874 121.717 110.032 119.876C108.191 118.035 105.694 117 103.09 117ZM67.0899 126.818C67.0899 125.95 67.4347 125.118 68.0484 124.504C68.6622 123.891 69.4946 123.546 70.3626 123.546H103.09C103.958 123.546 104.79 123.891 105.404 124.504C106.018 125.118 106.363 125.95 106.363 126.818V143.182C106.363 144.05 106.018 144.882 105.404 145.496C104.79 146.11 103.958 146.455 103.09 146.455H70.3626C69.4946 146.455 68.6622 146.11 68.0484 145.496C67.4347 144.882 67.0899 144.05 67.0899 143.182V126.818Z" fill="#F5CA0F"/>
</g>
<defs>
<clipPath id="clip0_2602_67">
<rect width="180" height="180" fill="white"/>
</clipPath>
</defs>
</svg>
