<svg width="32" height="32" viewBox="0 0 32 32" fill="none" xmlns="http://www.w3.org/2000/svg">
<g clip-path="url(#clip0_2602_57)">
<path fill-rule="evenodd" clip-rule="evenodd" d="M32 11.92V8.61527L16 0L0 8.61527V11.92L16 3.30473L32 11.92ZM5.81818 14.5455V29.0909H26.1818V14.5455H29.0909V32H2.90909V14.5455H5.81818Z" fill="#3EA34B"/>
<g clip-path="url(#clip1_2602_57)">
<path d="M15.3938 14.1819H12.3635L16.6059 5.69702V10.5455H19.6363L15.3938 19.0304V14.1819Z" fill="#F5CA0F"/>
</g>
<g clip-path="url(#clip2_2602_57)">
<path d="M20.9455 22.5454H20.3637C20.203 22.5454 20.0728 22.6757 20.0728 22.8363V25.1636C20.0728 25.3243 20.203 25.4545 20.3637 25.4545H20.9455C21.1061 25.4545 21.2364 25.3243 21.2364 25.1636V22.8363C21.2364 22.6757 21.1061 22.5454 20.9455 22.5454Z" fill="#F5CA0F"/>
<path d="M12.5093 22.5454H14.2547V25.4545H12.5093V22.5454ZM14.5456 22.5454H16.2911V25.4545H14.5456V22.5454ZM16.582 22.5454H18.3275V25.4545H16.582V22.5454Z" fill="#F5CA0F"/>
<path fill-rule="evenodd" clip-rule="evenodd" d="M18.3271 20.8H12.5089C12.046 20.8 11.602 20.9839 11.2747 21.3113C10.9473 21.6386 10.7634 22.0826 10.7634 22.5455V25.4546C10.7634 25.9175 10.9473 26.3615 11.2747 26.6888C11.602 27.0162 12.046 27.2 12.5089 27.2H18.3271C18.79 27.2 19.234 27.0162 19.5613 26.6888C19.8886 26.3615 20.0725 25.9175 20.0725 25.4546V22.5455C20.0725 22.0826 19.8886 21.6386 19.5613 21.3113C19.234 20.9839 18.79 20.8 18.3271 20.8ZM11.9271 22.5455C11.9271 22.3912 11.9884 22.2432 12.0975 22.1341C12.2066 22.025 12.3546 21.9637 12.5089 21.9637H18.3271C18.4814 21.9637 18.6294 22.025 18.7385 22.1341C18.8476 22.2432 18.9089 22.3912 18.9089 22.5455V25.4546C18.9089 25.6089 18.8476 25.7569 18.7385 25.866C18.6294 25.9751 18.4814 26.0364 18.3271 26.0364H12.5089C12.3546 26.0364 12.2066 25.9751 12.0975 25.866C11.9884 25.7569 11.9271 25.6089 11.9271 25.4546V22.5455Z" fill="#F5CA0F"/>
</g>
</g>
<defs>
<clipPath id="clip0_2602_57">
<rect width="32" height="32" fill="white"/>
</clipPath>
<clipPath id="clip1_2602_57">
<rect width="14.5455" height="14.5455" fill="white" transform="translate(8.72729 5.09082)"/>
</clipPath>
<clipPath id="clip2_2602_57">
<rect width="11.6364" height="11.6364" fill="white" transform="translate(10.1819 18.1819)"/>
</clipPath>
</defs>
</svg>
