<svg width="16" height="16" viewBox="0 0 16 16" fill="none" xmlns="http://www.w3.org/2000/svg">
<g clip-path="url(#clip0_2602_47)">
<path fill-rule="evenodd" clip-rule="evenodd" d="M16 5.96V4.30764L8 0L0 4.30764V5.96L8 1.65236L16 5.96ZM2.90909 7.27273V14.5455H13.0909V7.27273H14.5455V16H1.45455V7.27273H2.90909Z" fill="#3EA34B"/>
<g clip-path="url(#clip1_2602_47)">
<path d="M7.69704 7.09106H6.18188L8.3031 2.84863V5.27288H9.81825L7.69704 9.5153V7.09106Z" fill="#F5CA0F"/>
</g>
<g clip-path="url(#clip2_2602_47)">
<path d="M10.4727 11.2727H10.1818C10.1015 11.2727 10.0364 11.3378 10.0364 11.4182V12.5818C10.0364 12.6621 10.1015 12.7273 10.1818 12.7273H10.4727C10.5531 12.7273 10.6182 12.6621 10.6182 12.5818V11.4182C10.6182 11.3378 10.5531 11.2727 10.4727 11.2727Z" fill="#F5CA0F"/>
<path d="M6.25464 11.2727H7.12737V12.7273H6.25464V11.2727ZM7.27282 11.2727H8.14555V12.7273H7.27282V11.2727ZM8.291 11.2727H9.16373V12.7273H8.291V11.2727Z" fill="#F5CA0F"/>
<path fill-rule="evenodd" clip-rule="evenodd" d="M9.16365 10.4001H6.25456C6.0231 10.4001 5.80112 10.4921 5.63745 10.6558C5.47378 10.8194 5.38184 11.0414 5.38184 11.2729V12.7274C5.38184 12.9589 5.47378 13.1809 5.63745 13.3445C5.80112 13.5082 6.0231 13.6001 6.25456 13.6001H9.16365C9.39512 13.6001 9.6171 13.5082 9.78077 13.3445C9.94443 13.1809 10.0364 12.9589 10.0364 12.7274V11.2729C10.0364 11.0414 9.94443 10.8194 9.78077 10.6558C9.6171 10.4921 9.39512 10.4001 9.16365 10.4001ZM5.96365 11.2729C5.96365 11.1957 5.9943 11.1217 6.04886 11.0672C6.10342 11.0126 6.17741 10.982 6.25456 10.982H9.16365C9.24081 10.982 9.3148 11.0126 9.36936 11.0672C9.42391 11.1217 9.45456 11.1957 9.45456 11.2729V12.7274C9.45456 12.8046 9.42391 12.8786 9.36936 12.9331C9.3148 12.9877 9.24081 13.0183 9.16365 13.0183H6.25456C6.17741 13.0183 6.10342 12.9877 6.04886 12.9331C5.9943 12.8786 5.96365 12.8046 5.96365 12.7274V11.2729Z" fill="#F5CA0F"/>
</g>
</g>
<defs>
<clipPath id="clip0_2602_47">
<rect width="16" height="16" fill="white"/>
</clipPath>
<clipPath id="clip1_2602_47">
<rect width="7.27273" height="7.27273" fill="white" transform="translate(4.36353 2.54541)"/>
</clipPath>
<clipPath id="clip2_2602_47">
<rect width="5.81818" height="5.81818" fill="white" transform="translate(5.09082 9.09082)"/>
</clipPath>
</defs>
</svg>
