<svg width="51" height="10" viewBox="0 0 51 10" fill="none" xmlns="http://www.w3.org/2000/svg">
<g clip-path="url(#clip0_2602_19)">
<path d="M5.15444 7.82494C4.75894 8.06808 4.27268 8.18964 3.69564 8.18964C2.74579 8.18964 1.96777 7.8606 1.36155 7.20252C0.729402 6.5412 0.413328 5.63674 0.413328 4.48914C0.413328 3.32858 0.732644 2.39819 1.37128 1.69796C2.00991 0.997739 2.85439 0.647626 3.90473 0.647626C4.81568 0.647626 5.5467 0.879413 6.0978 1.34299C6.65215 1.80332 6.96984 2.37874 7.05089 3.06924H5.5775C5.46403 2.57973 5.18686 2.23772 4.74598 2.04322C4.4996 1.93624 4.22567 1.88275 3.92418 1.88275C3.34715 1.88275 2.87222 2.10157 2.49942 2.53921C2.12985 2.97361 1.94507 3.62845 1.94507 4.50373C1.94507 5.3855 2.14606 6.00954 2.54805 6.37586C2.95003 6.74219 3.40712 6.92535 3.91932 6.92535C4.4218 6.92535 4.83351 6.78109 5.15444 6.49257C5.47538 6.20081 5.67313 5.8199 5.74769 5.34984H4.08952V4.15362H7.0752V8H6.08321L5.93247 7.10527C5.64395 7.44565 5.38461 7.68555 5.15444 7.82494ZM11.0626 3.97856C10.505 3.97856 10.1306 4.1601 9.93932 4.52318C9.83234 4.72742 9.77885 5.04187 9.77885 5.46654V8H8.38326V2.69968H9.70591V3.62359C9.91987 3.27023 10.1063 3.02872 10.2651 2.89905C10.5245 2.68185 10.8616 2.57325 11.2766 2.57325C11.3025 2.57325 11.3236 2.57487 11.3398 2.57811C11.3592 2.57811 11.3997 2.57973 11.4613 2.58297V4.00288C11.3738 3.99315 11.296 3.98667 11.2279 3.98343C11.1599 3.98018 11.1047 3.97856 11.0626 3.97856ZM13.703 2.69968V8H12.2977V2.69968H13.703ZM13.703 0.788643V2.06753H12.2977V0.788643H13.703ZM19.8738 0.842133V8H18.5268V7.26574C18.3291 7.58019 18.1038 7.80873 17.8509 7.95137C17.598 8.09401 17.2836 8.16533 16.9075 8.16533C16.2884 8.16533 15.7664 7.91571 15.3418 7.41648C14.9203 6.914 14.7096 6.27051 14.7096 5.48599C14.7096 4.58153 14.9171 3.86996 15.332 3.35128C15.7502 2.83259 16.3078 2.57325 17.0048 2.57325C17.3257 2.57325 17.611 2.64457 17.8606 2.78721C18.1102 2.9266 18.3129 3.12111 18.4685 3.37073V0.842133H19.8738ZM16.1392 5.38388C16.1392 5.87339 16.2365 6.26402 16.431 6.55578C16.6223 6.85079 16.914 6.99829 17.3063 6.99829C17.6985 6.99829 17.9968 6.85241 18.201 6.56065C18.4052 6.26889 18.5074 5.89122 18.5074 5.42764C18.5074 4.77928 18.3437 4.31571 18.0162 4.03691C17.8152 3.86834 17.5818 3.78406 17.316 3.78406C16.9108 3.78406 16.6125 3.93804 16.4213 4.24601C16.2333 4.55074 16.1392 4.93003 16.1392 5.38388Z" fill="white"/>
<path d="M24.5225 8H21.2742V0.832407H24.7559C25.6344 0.845375 26.2569 1.09985 26.6232 1.59585C26.8436 1.90058 26.9538 2.26528 26.9538 2.68995C26.9538 3.12759 26.8436 3.47933 26.6232 3.74515C26.5 3.89428 26.3185 4.03043 26.0786 4.15362C26.4449 4.28653 26.7204 4.49725 26.9052 4.78577C27.0932 5.07429 27.1873 5.4244 27.1873 5.83611C27.1873 6.26078 27.0803 6.64169 26.8663 6.97884C26.7302 7.20252 26.56 7.39054 26.3557 7.54291C26.1256 7.71796 25.8533 7.83791 25.5388 7.90275C25.2276 7.96758 24.8888 8 24.5225 8ZM24.4885 4.84412H22.7039V6.75515H24.4642C24.7786 6.75515 25.0234 6.71301 25.1984 6.62872C25.5161 6.47312 25.675 6.17487 25.675 5.73399C25.675 5.36118 25.521 5.10508 25.213 4.96569C25.0412 4.88788 24.7997 4.84736 24.4885 4.84412ZM25.2325 3.47771C25.427 3.361 25.5242 3.15191 25.5242 2.85042C25.5242 2.51652 25.3945 2.29607 25.1352 2.1891C24.9115 2.11453 24.6262 2.07725 24.2794 2.07725H22.7039V3.65763H24.4642C24.7786 3.65763 25.0347 3.59765 25.2325 3.47771ZM31.7339 7.25115C31.7209 7.26736 31.6885 7.31598 31.6366 7.39703C31.5847 7.47807 31.5231 7.54939 31.4518 7.61099C31.2346 7.80549 31.0239 7.93841 30.8197 8.00973C30.6187 8.08104 30.382 8.1167 30.1097 8.1167C29.3252 8.1167 28.7968 7.83467 28.5245 7.2706C28.3721 6.95939 28.2959 6.50067 28.2959 5.89446V2.69968H29.7158V5.89446C29.7158 6.19595 29.7515 6.42287 29.8228 6.57523C29.9493 6.8443 30.1973 6.97884 30.5668 6.97884C31.0401 6.97884 31.3643 6.78757 31.5394 6.40504C31.6301 6.19757 31.6755 5.92364 31.6755 5.58325V2.69968H33.0808V8H31.7339V7.25115ZM39.2467 0.842133V8H37.8997V7.26574C37.702 7.58019 37.4767 7.80873 37.2238 7.95137C36.971 8.09401 36.6565 8.16533 36.2805 8.16533C35.6613 8.16533 35.1394 7.91571 34.7147 7.41648C34.2932 6.914 34.0825 6.27051 34.0825 5.48599C34.0825 4.58153 34.29 3.86996 34.705 3.35128C35.1231 2.83259 35.6807 2.57325 36.3777 2.57325C36.6987 2.57325 36.9839 2.64457 37.2336 2.78721C37.4832 2.9266 37.6858 3.12111 37.8414 3.37073V0.842133H39.2467ZM35.5122 5.38388C35.5122 5.87339 35.6094 6.26402 35.8039 6.55578C35.9952 6.85079 36.2869 6.99829 36.6792 6.99829C37.0715 6.99829 37.3697 6.85241 37.5739 6.56065C37.7782 6.26889 37.8803 5.89122 37.8803 5.42764C37.8803 4.77928 37.7166 4.31571 37.3892 4.03691C37.1882 3.86834 36.9548 3.78406 36.6889 3.78406C36.2837 3.78406 35.9855 3.93804 35.7942 4.24601C35.6062 4.55074 35.5122 4.93003 35.5122 5.38388ZM45.3348 0.842133V8H43.9878V7.26574C43.7901 7.58019 43.5648 7.80873 43.3119 7.95137C43.059 8.09401 42.7446 8.16533 42.3685 8.16533C41.7494 8.16533 41.2274 7.91571 40.8028 7.41648C40.3813 6.914 40.1706 6.27051 40.1706 5.48599C40.1706 4.58153 40.3781 3.86996 40.793 3.35128C41.2112 2.83259 41.7688 2.57325 42.4658 2.57325C42.7867 2.57325 43.072 2.64457 43.3216 2.78721C43.5712 2.9266 43.7739 3.12111 43.9295 3.37073V0.842133H45.3348ZM41.6002 5.38388C41.6002 5.87339 41.6975 6.26402 41.892 6.55578C42.0833 6.85079 42.375 6.99829 42.7673 6.99829C43.1595 6.99829 43.4578 6.85241 43.662 6.56065C43.8662 6.26889 43.9684 5.89122 43.9684 5.42764C43.9684 4.77928 43.8047 4.31571 43.4772 4.03691C43.2762 3.86834 43.0428 3.78406 42.777 3.78406C42.3718 3.78406 42.0735 3.93804 41.8823 4.24601C41.6943 4.55074 41.6002 4.93003 41.6002 5.38388ZM48.7532 6.60927L49.8473 2.69968H51.3207L49.5021 7.91247C49.152 8.91743 48.8748 9.53985 48.6706 9.77974C48.4663 10.0229 48.0579 10.1444 47.4452 10.1444C47.322 10.1444 47.2231 10.1428 47.1486 10.1396C47.074 10.1396 46.9622 10.1347 46.813 10.125V9.0163L46.9881 9.02603C47.1242 9.03251 47.2539 9.02765 47.3771 9.01144C47.5003 8.99523 47.604 8.95795 47.6883 8.8996C47.7694 8.84449 47.8439 8.7294 47.912 8.55435C47.9833 8.37929 48.0125 8.27231 47.9995 8.23341L46.0545 2.69968H47.5959L48.7532 6.60927Z" fill="#F5CA0F"/>
</g>
<defs>
<clipPath id="clip0_2602_19">
<rect width="51" height="10" fill="white"/>
</clipPath>
</defs>
</svg>
