<svg width="22" height="22" viewBox="0 0 22 22" fill="none" xmlns="http://www.w3.org/2000/svg">
<g clip-path="url(#clip0_2602_18)">
<path fill-rule="evenodd" clip-rule="evenodd" d="M22 8.195V5.923L11 0L0 5.923V8.195L11 2.272L22 8.195ZM4 10V20H18V10H20V22H2V10H4Z" fill="#3EA34B"/>
<g clip-path="url(#clip1_2602_18)">
<path d="M10.5833 9.75008H8.5L11.4167 3.91675V7.25008H13.5L10.5833 13.0834V9.75008Z" fill="#F5CA0F"/>
</g>
<path d="M14.4 15.5H14C13.8896 15.5 13.8 15.5895 13.8 15.7V17.3C13.8 17.4105 13.8896 17.5 14 17.5H14.4C14.5105 17.5 14.6 17.4105 14.6 17.3V15.7C14.6 15.5895 14.5105 15.5 14.4 15.5Z" fill="#F5CA0F"/>
<path d="M8.6001 15.5H9.8001V17.5H8.6001V15.5ZM10.0001 15.5H11.2001V17.5H10.0001V15.5ZM11.4001 15.5H12.6001V17.5H11.4001V15.5Z" fill="#F5CA0F"/>
<path fill-rule="evenodd" clip-rule="evenodd" d="M12.5999 14.3H8.5999C8.28164 14.3 7.97642 14.4265 7.75137 14.6515C7.52633 14.8766 7.3999 15.1818 7.3999 15.5V17.5C7.3999 17.8183 7.52633 18.1235 7.75137 18.3486C7.97642 18.5736 8.28164 18.7 8.5999 18.7H12.5999C12.9182 18.7 13.2234 18.5736 13.4484 18.3486C13.6735 18.1235 13.7999 17.8183 13.7999 17.5V15.5C13.7999 15.1818 13.6735 14.8766 13.4484 14.6515C13.2234 14.4265 12.9182 14.3 12.5999 14.3ZM8.1999 15.5C8.1999 15.394 8.24205 15.2922 8.31706 15.2172C8.39207 15.1422 8.49382 15.1 8.5999 15.1H12.5999C12.706 15.1 12.8077 15.1422 12.8827 15.2172C12.9578 15.2922 12.9999 15.394 12.9999 15.5V17.5C12.9999 17.6061 12.9578 17.7079 12.8827 17.7829C12.8077 17.8579 12.706 17.9 12.5999 17.9H8.5999C8.49382 17.9 8.39207 17.8579 8.31706 17.7829C8.24205 17.7079 8.1999 17.6061 8.1999 17.5V15.5Z" fill="#F5CA0F"/>
</g>
<defs>
<clipPath id="clip0_2602_18">
<rect width="22" height="22" fill="white"/>
</clipPath>
<clipPath id="clip1_2602_18">
<rect width="10" height="10" fill="white" transform="translate(6 3.5)"/>
</clipPath>
</defs>
</svg>
