<svg width="65" height="14" viewBox="0 0 65 14" fill="none" xmlns="http://www.w3.org/2000/svg">
<g clip-path="url(#clip0_2602_20)">
<path fill-rule="evenodd" clip-rule="evenodd" d="M12 5.47V4.23073L6 1L0 4.23073V5.47L6 2.23927L12 5.47ZM2.18182 6.45455V11.9091H9.81818V6.45455H10.9091V13H1.09091V6.45455H2.18182Z" fill="#3EA34B"/>
<g clip-path="url(#clip1_2602_20)">
<path d="M5.77284 6.31829H4.63647L6.22738 3.13647V4.95466H7.36375L5.77284 8.13647V6.31829Z" fill="#F5CA0F"/>
</g>
<path d="M7.85462 9.45459H7.63643C7.57619 9.45459 7.52734 9.50343 7.52734 9.56368V10.4364C7.52734 10.4967 7.57619 10.5455 7.63643 10.5455H7.85462C7.91487 10.5455 7.96371 10.4967 7.96371 10.4364V9.56368C7.96371 9.50343 7.91487 9.45459 7.85462 9.45459Z" fill="#F5CA0F"/>
<path d="M4.69092 9.45459H5.34546V10.5455H4.69092V9.45459ZM5.45455 9.45459H6.1091V10.5455H5.45455V9.45459ZM6.21819 9.45459H6.87274V10.5455H6.21819V9.45459Z" fill="#F5CA0F"/>
<path fill-rule="evenodd" clip-rule="evenodd" d="M6.87274 8.80005H4.69092C4.51733 8.80005 4.35084 8.86901 4.22809 8.99176C4.10534 9.11451 4.03638 9.281 4.03638 9.45459V10.5455C4.03638 10.7191 4.10534 10.8856 4.22809 11.0083C4.35084 11.1311 4.51733 11.2 4.69092 11.2H6.87274C7.04634 11.2 7.21282 11.1311 7.33557 11.0083C7.45833 10.8856 7.52729 10.7191 7.52729 10.5455V9.45459C7.52729 9.281 7.45833 9.11451 7.33557 8.99176C7.21282 8.86901 7.04634 8.80005 6.87274 8.80005ZM4.47274 9.45459C4.47274 9.39673 4.49573 9.34123 4.53664 9.30032C4.57756 9.2594 4.63306 9.23641 4.69092 9.23641H6.87274C6.93061 9.23641 6.9861 9.2594 7.02702 9.30032C7.06794 9.34123 7.09092 9.39673 7.09092 9.45459V10.5455C7.09092 10.6034 7.06794 10.6589 7.02702 10.6998C6.9861 10.7407 6.93061 10.7637 6.87274 10.7637H4.69092C4.63306 10.7637 4.57756 10.7407 4.53664 10.6998C4.49573 10.6589 4.47274 10.6034 4.47274 10.5455V9.45459Z" fill="#F5CA0F"/>
</g>
<g clip-path="url(#clip2_2602_20)">
<path d="M19.1544 10.8249C18.7589 11.0681 18.2727 11.1896 17.6956 11.1896C16.7458 11.1896 15.9678 10.8606 15.3616 10.2025C14.7294 9.5412 14.4133 8.63674 14.4133 7.48914C14.4133 6.32858 14.7326 5.39819 15.3713 4.69796C16.0099 3.99774 16.8544 3.64763 17.9047 3.64763C18.8157 3.64763 19.5467 3.87941 20.0978 4.34299C20.6521 4.80332 20.9698 5.37874 21.0509 6.06924H19.5775C19.464 5.57973 19.1869 5.23772 18.746 5.04322C18.4996 4.93624 18.2257 4.88275 17.9242 4.88275C17.3471 4.88275 16.8722 5.10157 16.4994 5.53921C16.1299 5.97361 15.9451 6.62845 15.9451 7.50373C15.9451 8.3855 16.1461 9.00954 16.548 9.37586C16.95 9.74219 17.4071 9.92535 17.9193 9.92535C18.4218 9.92535 18.8335 9.78109 19.1544 9.49257C19.4754 9.20081 19.6731 8.8199 19.7477 8.34984H18.0895V7.15362H21.0752V11H20.0832L19.9325 10.1053C19.644 10.4457 19.3846 10.6855 19.1544 10.8249ZM25.0626 6.97856C24.505 6.97856 24.1306 7.1601 23.9393 7.52318C23.8323 7.72742 23.7789 8.04187 23.7789 8.46654V11H22.3833V5.69968H23.7059V6.62359C23.9199 6.27023 24.1063 6.02872 24.2651 5.89905C24.5245 5.68185 24.8616 5.57325 25.2766 5.57325C25.3025 5.57325 25.3236 5.57487 25.3398 5.57811C25.3592 5.57811 25.3997 5.57973 25.4613 5.58297V7.00288C25.3738 6.99315 25.296 6.98667 25.2279 6.98343C25.1599 6.98018 25.1047 6.97856 25.0626 6.97856ZM27.703 5.69968V11H26.2977V5.69968H27.703ZM27.703 3.78864V5.06753H26.2977V3.78864H27.703ZM33.8738 3.84213V11H32.5268V10.2657C32.3291 10.5802 32.1038 10.8087 31.8509 10.9514C31.598 11.094 31.2836 11.1653 30.9075 11.1653C30.2884 11.1653 29.7664 10.9157 29.3418 10.4165C28.9203 9.914 28.7096 9.27051 28.7096 8.48599C28.7096 7.58153 28.9171 6.86996 29.332 6.35128C29.7502 5.83259 30.3078 5.57325 31.0048 5.57325C31.3257 5.57325 31.611 5.64457 31.8606 5.78721C32.1102 5.9266 32.3129 6.12111 32.4685 6.37073V3.84213H33.8738ZM30.1392 8.38388C30.1392 8.87339 30.2365 9.26402 30.431 9.55578C30.6223 9.85079 30.914 9.99829 31.3063 9.99829C31.6985 9.99829 31.9968 9.85241 32.201 9.56065C32.4052 9.26889 32.5074 8.89122 32.5074 8.42764C32.5074 7.77928 32.3437 7.31571 32.0162 7.03691C31.8152 6.86834 31.5818 6.78406 31.316 6.78406C30.9108 6.78406 30.6125 6.93804 30.4213 7.24601C30.2333 7.55074 30.1392 7.93003 30.1392 8.38388Z" fill="white"/>
<path d="M38.5225 11H35.2742V3.83241H38.7559C39.6344 3.84537 40.2569 4.09985 40.6232 4.59585C40.8436 4.90058 40.9538 5.26528 40.9538 5.68995C40.9538 6.12759 40.8436 6.47933 40.6232 6.74515C40.5 6.89428 40.3185 7.03043 40.0786 7.15362C40.4449 7.28653 40.7204 7.49725 40.9052 7.78577C41.0932 8.07429 41.1873 8.4244 41.1873 8.83611C41.1873 9.26078 41.0803 9.64169 40.8663 9.97884C40.7302 10.2025 40.56 10.3905 40.3557 10.5429C40.1256 10.718 39.8533 10.8379 39.5388 10.9027C39.2276 10.9676 38.8888 11 38.5225 11ZM38.4885 7.84412H36.7039V9.75515H38.4642C38.7786 9.75515 39.0234 9.71301 39.1984 9.62872C39.5161 9.47312 39.675 9.17487 39.675 8.73399C39.675 8.36118 39.521 8.10508 39.213 7.96569C39.0412 7.88788 38.7997 7.84736 38.4885 7.84412ZM39.2325 6.47771C39.427 6.361 39.5242 6.15191 39.5242 5.85042C39.5242 5.51652 39.3945 5.29607 39.1352 5.1891C38.9115 5.11453 38.6262 5.07725 38.2794 5.07725H36.7039V6.65763H38.4642C38.7786 6.65763 39.0347 6.59765 39.2325 6.47771ZM45.7339 10.2511C45.7209 10.2674 45.6885 10.316 45.6366 10.397C45.5847 10.4781 45.5231 10.5494 45.4518 10.611C45.2346 10.8055 45.0239 10.9384 44.8197 11.0097C44.6187 11.081 44.382 11.1167 44.1097 11.1167C43.3252 11.1167 42.7968 10.8347 42.5245 10.2706C42.3721 9.95939 42.2959 9.50067 42.2959 8.89446V5.69968H43.7158V8.89446C43.7158 9.19595 43.7515 9.42287 43.8228 9.57523C43.9493 9.8443 44.1973 9.97884 44.5668 9.97884C45.0401 9.97884 45.3643 9.78757 45.5394 9.40504C45.6301 9.19757 45.6755 8.92364 45.6755 8.58325V5.69968H47.0808V11H45.7339V10.2511ZM53.2467 3.84213V11H51.8997V10.2657C51.702 10.5802 51.4767 10.8087 51.2238 10.9514C50.971 11.094 50.6565 11.1653 50.2805 11.1653C49.6613 11.1653 49.1394 10.9157 48.7147 10.4165C48.2932 9.914 48.0825 9.27051 48.0825 8.48599C48.0825 7.58153 48.29 6.86996 48.705 6.35128C49.1231 5.83259 49.6807 5.57325 50.3777 5.57325C50.6987 5.57325 50.9839 5.64457 51.2336 5.78721C51.4832 5.9266 51.6858 6.12111 51.8414 6.37073V3.84213H53.2467ZM49.5122 8.38388C49.5122 8.87339 49.6094 9.26402 49.8039 9.55578C49.9952 9.85079 50.2869 9.99829 50.6792 9.99829C51.0715 9.99829 51.3697 9.85241 51.5739 9.56065C51.7782 9.26889 51.8803 8.89122 51.8803 8.42764C51.8803 7.77928 51.7166 7.31571 51.3892 7.03691C51.1882 6.86834 50.9548 6.78406 50.6889 6.78406C50.2837 6.78406 49.9855 6.93804 49.7942 7.24601C49.6062 7.55074 49.5122 7.93003 49.5122 8.38388ZM59.3348 3.84213V11H57.9878V10.2657C57.7901 10.5802 57.5648 10.8087 57.3119 10.9514C57.059 11.094 56.7446 11.1653 56.3685 11.1653C55.7494 11.1653 55.2274 10.9157 54.8028 10.4165C54.3813 9.914 54.1706 9.27051 54.1706 8.48599C54.1706 7.58153 54.3781 6.86996 54.793 6.35128C55.2112 5.83259 55.7688 5.57325 56.4658 5.57325C56.7867 5.57325 57.072 5.64457 57.3216 5.78721C57.5712 5.9266 57.7739 6.12111 57.9295 6.37073V3.84213H59.3348ZM55.6002 8.38388C55.6002 8.87339 55.6975 9.26402 55.892 9.55578C56.0833 9.85079 56.375 9.99829 56.7673 9.99829C57.1595 9.99829 57.4578 9.85241 57.662 9.56065C57.8662 9.26889 57.9684 8.89122 57.9684 8.42764C57.9684 7.77928 57.8047 7.31571 57.4772 7.03691C57.2762 6.86834 57.0428 6.78406 56.777 6.78406C56.3718 6.78406 56.0735 6.93804 55.8823 7.24601C55.6943 7.55074 55.6002 7.93003 55.6002 8.38388ZM62.7532 9.60927L63.8473 5.69968H65.3207L63.5021 10.9125C63.152 11.9174 62.8748 12.5398 62.6706 12.7797C62.4663 13.0229 62.0579 13.1444 61.4452 13.1444C61.322 13.1444 61.2231 13.1428 61.1486 13.1396C61.074 13.1396 60.9622 13.1347 60.813 13.125V12.0163L60.9881 12.026C61.1242 12.0325 61.2539 12.0276 61.3771 12.0114C61.5003 11.9952 61.604 11.9579 61.6883 11.8996C61.7694 11.8445 61.8439 11.7294 61.912 11.5543C61.9833 11.3793 62.0125 11.2723 61.9995 11.2334L60.0545 5.69968H61.5959L62.7532 9.60927Z" fill="#F5CA0F"/>
</g>
<defs>
<clipPath id="clip0_2602_20">
<rect width="12" height="12" fill="white" transform="translate(0 1)"/>
</clipPath>
<clipPath id="clip1_2602_20">
<rect width="5.45455" height="5.45455" fill="white" transform="translate(3.27271 2.90918)"/>
</clipPath>
<clipPath id="clip2_2602_20">
<rect width="51" height="10" fill="white" transform="translate(14 3)"/>
</clipPath>
</defs>
</svg>
